<svg xmlns="http://www.w3.org/2000/svg" viewBox="0 0 821.83 345.64"><defs><style>.cls-1{fill:#eae9d9;}.cls-2{fill:#2970ef;}</style></defs><title>tketz</title><g id="Layer_2" data-name="Layer 2"><g id="object"><path class="cls-1" d="M802.3,56.29a18.39,18.39,0,0,0,10.94,16.88,12.73,12.73,0,0,1,7.33,11.76l-.08,21.53a12.73,12.73,0,0,1-7.42,11.71,18.38,18.38,0,0,0-.13,33.67,12.73,12.73,0,0,1,7.34,11.76l-.09,21.57a12.71,12.71,0,0,1-7.43,11.7,18.4,18.4,0,0,0-.12,33.68A12.73,12.73,0,0,1,820,242.31l-.08,21.53a12.74,12.74,0,0,1-7.43,11.71,18.39,18.39,0,0,0-.13,33.67A12.73,12.73,0,0,1,819.68,321l0,10.68a13,13,0,0,1-13.08,13l-202.31-.77A13.51,13.51,0,0,1,593,337.21a12.34,12.34,0,0,0-20.83-.07,13.52,13.52,0,0,1-11.32,6.57L14,341.63A13,13,0,0,1,1,328.55l0-10.67a12.71,12.71,0,0,1,7.42-11.7,18.4,18.4,0,0,0,11.07-16.8A18.39,18.39,0,0,0,8.59,272.5a12.73,12.73,0,0,1-7.33-11.76l.08-21.53A12.73,12.73,0,0,1,8.76,227.5a18.39,18.39,0,0,0,11.07-16.8A18.35,18.35,0,0,0,8.9,193.83a12.74,12.74,0,0,1-7.34-11.77l.08-21.56a12.71,12.71,0,0,1,7.42-11.7A18.4,18.4,0,0,0,20.13,132,18.42,18.42,0,0,0,9.19,115.12a12.72,12.72,0,0,1-7.34-11.76l.09-21.53A12.72,12.72,0,0,1,9.36,70.12,18.39,18.39,0,0,0,9.5,36.45,12.74,12.74,0,0,1,2.15,24.68l0-10.7A13,13,0,0,1,15.28,1L562.12,3.07a13.52,13.52,0,0,1,11.27,6.66,12.34,12.34,0,0,0,20.83.08,13.52,13.52,0,0,1,11.32-6.57L807.85,4a13,13,0,0,1,13,13.08l0,10.7a12.74,12.74,0,0,1-7.43,11.71A18.36,18.36,0,0,0,802.3,56.29Z"/><path class="cls-1" d="M13.92,342.63A14,14,0,0,1,0,328.55l0-10.67a13.68,13.68,0,0,1,8-12.62,17.41,17.41,0,0,0,10.46-15.89,17.39,17.39,0,0,0-10.34-16A13.67,13.67,0,0,1,.26,260.74L.34,239.2a13.69,13.69,0,0,1,8-12.62,17.39,17.39,0,0,0,.14-31.84A13.67,13.67,0,0,1,.56,182.06L.64,160.5a13.68,13.68,0,0,1,8-12.62A17.39,17.39,0,0,0,8.78,116,13.69,13.69,0,0,1,.85,103.36L.94,81.82A13.69,13.69,0,0,1,9,69.2a17.39,17.39,0,0,0,.13-31.84A13.7,13.7,0,0,1,1.15,24.68l0-10.7A14,14,0,0,1,15.28,0L562.12,2.07h.06A14.58,14.58,0,0,1,574.24,9.2a11.29,11.29,0,0,0,9.5,5.29h0a11.27,11.27,0,0,0,9.59-5.22,14.57,14.57,0,0,1,12.17-7L807.85,3h.06a14,14,0,0,1,13.92,14.08l0,10.7a13.68,13.68,0,0,1-8,12.62A17.39,17.39,0,0,0,803.3,56.3h0a17.42,17.42,0,0,0,10.35,16,13.66,13.66,0,0,1,7.92,12.67l-.08,21.54a13.69,13.69,0,0,1-8,12.62,17.38,17.38,0,0,0-.12,31.84,13.68,13.68,0,0,1,7.93,12.68l-.09,21.56a13.69,13.69,0,0,1-8,12.62,17.4,17.4,0,0,0-.11,31.85A13.67,13.67,0,0,1,821,242.31l-.08,21.54a13.72,13.72,0,0,1-8,12.62,17.39,17.39,0,0,0-.12,31.84A13.68,13.68,0,0,1,820.68,321l0,10.67a14,14,0,0,1-14.09,14l-202.3-.77h0a14.57,14.57,0,0,1-12.06-7.12,11.33,11.33,0,0,0-9.51-5.3h0a11.3,11.3,0,0,0-9.59,5.23,14.55,14.55,0,0,1-12.17,7L14,342.63ZM562.16,4.07h0L15.27,2A12.05,12.05,0,0,0,3.19,14l0,10.7A11.67,11.67,0,0,0,9.9,35.53,19.39,19.39,0,0,1,9.76,71,11.66,11.66,0,0,0,2.94,81.83l-.09,21.53A11.71,11.71,0,0,0,9.6,114.21a19.38,19.38,0,0,1-.14,35.5A11.69,11.69,0,0,0,2.64,160.5l-.08,21.56a11.69,11.69,0,0,0,6.75,10.85,19.39,19.39,0,0,1-.15,35.51,11.69,11.69,0,0,0-6.82,10.79l-.08,21.53A11.69,11.69,0,0,0,9,271.59a19.39,19.39,0,0,1,11.53,17.79A19.4,19.4,0,0,1,8.86,307.09,11.7,11.7,0,0,0,2,317.88l0,10.68a12,12,0,0,0,11.94,12.07H14l546.84,2.08a12.6,12.6,0,0,0,10.48-6.11,13.29,13.29,0,0,1,11.28-6.15h.06a13.32,13.32,0,0,1,11.18,6.23,12.55,12.55,0,0,0,10.38,6.19h0l202.3.77a12,12,0,0,0,12.08-12l0-10.67a11.68,11.68,0,0,0-6.74-10.84,19.39,19.39,0,0,1,.13-35.51,11.69,11.69,0,0,0,6.83-10.79l.08-21.53a11.69,11.69,0,0,0-6.74-10.85,19.39,19.39,0,0,1,.12-35.5,11.68,11.68,0,0,0,6.83-10.8l.09-21.56a11.7,11.7,0,0,0-6.74-10.84,19.38,19.38,0,0,1,.13-35.51,11.66,11.66,0,0,0,6.82-10.79l.08-21.53a11.69,11.69,0,0,0-6.74-10.85A19.39,19.39,0,0,1,801.3,56.29h0A19.39,19.39,0,0,1,813,38.58a11.7,11.7,0,0,0,6.83-10.8l0-10.7A12,12,0,0,0,807.9,5h-.06l-202.3-.77a12.56,12.56,0,0,0-10.47,6.11,13.29,13.29,0,0,1-11.29,6.14h0a13.29,13.29,0,0,1-11.19-6.22A12.58,12.58,0,0,0,562.16,4.07Z"/><path class="cls-2" d="M15.33,318.75a32.7,32.7,0,0,0,18.5-29.32A32.72,32.72,0,0,0,15.56,260l.07-19.9a32.7,32.7,0,0,0,18.49-29.32A32.68,32.68,0,0,0,15.85,181.3l.08-19.93a32.68,32.68,0,0,0,.22-58.77l.08-19.9A32.71,32.71,0,0,0,34.72,53.38,32.68,32.68,0,0,0,16.45,23.92l0-8.62L561.3,17.37a26.52,26.52,0,0,0,19.76,12.28,26.22,26.22,0,0,0,2.67.14,26.54,26.54,0,0,0,22.52-12.25l200.28.76,0,8.62a32.68,32.68,0,0,0-.22,58.77l-.08,19.9a32.69,32.69,0,0,0-.22,58.78l-.08,19.92a32.69,32.69,0,0,0-.22,58.78L805.6,263a32.69,32.69,0,0,0-.22,58.78l0,8.59-200.28-.76a26.64,26.64,0,0,0-45-.17L15.3,327.34Z"/><path class="cls-1" d="M165.72,110.13v33.18h22.5v22.94h-22.5v50.33q0,7.14,3.34,10.36t10.47,3.23a44.89,44.89,0,0,0,8.91-.9v21.38q-5.79,2.46-15.81,2.45-15.15,0-23.83-8.57t-8.69-23.72V166.25h-20V143.31h5.57q8.24,0,12.47-4.68t4.23-12.24V110.13Z"/><path class="cls-1" d="M270.39,198.1h-62.8V175.16h62.8Z"/><path class="cls-1" d="M398.67,143.31l-44.54,45.88,45.43,62.58H367.94l-31.85-44.32-13.36,14v30.29H297.12V90.53h25.61v96.65l41.64-43.87Z"/><path class="cls-1" d="M487.3,213.91l21.83,6.9a48.43,48.43,0,0,1-17.48,24.61q-12.81,9.69-31.52,9.69-23.16,0-39.3-15.81T404.68,197q0-24.93,15.7-41t37.08-16q24.94,0,39,15.26t14,41.09c0,4.6-.23,7.35-.67,8.24H430.51a28.06,28.06,0,0,0,9,20.26,29.1,29.1,0,0,0,20.6,8Q481.07,232.84,487.3,213.91Zm-56.12-28.28h53.23a25.13,25.13,0,0,0-7.24-17.15q-6.8-6.9-19.49-6.91-11.58,0-18.7,7.24A25.94,25.94,0,0,0,431.18,185.63Z"/><path class="cls-1" d="M567.93,110.13v33.18h22.49v22.94H567.93v50.33q0,7.14,3.34,10.36t10.46,3.23a44.89,44.89,0,0,0,8.91-.9v21.38q-5.79,2.46-15.81,2.45-15.15,0-23.83-8.57t-8.69-23.72V166.25h-20V143.31h5.57q8.24,0,12.47-4.68t4.23-12.24V110.13Z"/><path class="cls-1" d="M701.76,251.77H613.13v-22.5l55-63.24H614.24V143.31h86.41v21.83L645,229.05h56.78Z"/></g></g></svg>