<svg xmlns="http://www.w3.org/2000/svg" viewBox="0 0 821.94 345.91"><defs><style>.cls-1{fill:#eae9d9;}.cls-2{fill:#2970ef;}</style></defs><title>tonkets</title><g id="Layer_2" data-name="Layer 2"><g id="object"><path class="cls-1" d="M801.42,53.33a18.39,18.39,0,0,0,11.07,16.79,12.73,12.73,0,0,1,7.43,11.7l.09,21.54a12.73,12.73,0,0,1-7.33,11.76,18.38,18.38,0,0,0,.14,33.67,12.76,12.76,0,0,1,7.43,11.7l.08,21.57A12.71,12.71,0,0,1,813,193.82a18.39,18.39,0,0,0,.15,33.68,12.73,12.73,0,0,1,7.43,11.7l.09,21.53a12.74,12.74,0,0,1-7.33,11.77,18.38,18.38,0,0,0,.14,33.67,12.74,12.74,0,0,1,7.43,11.7l0,10.68a13,13,0,0,1-13,13.08l-202.3.84a13.54,13.54,0,0,1-11.33-6.57,12.34,12.34,0,0,0-20.83.09,13.52,13.52,0,0,1-11.27,6.66L15.39,344.91a13,13,0,0,1-13.09-13l0-10.67A12.73,12.73,0,0,1,9.59,309.5a18.39,18.39,0,0,0-.14-33.68A12.72,12.72,0,0,1,2,264.12l-.09-21.53a12.72,12.72,0,0,1,7.33-11.76A18.4,18.4,0,0,0,20.2,213.94,18.38,18.38,0,0,0,9.14,197.15,12.72,12.72,0,0,1,1.7,185.44l-.09-21.56a12.72,12.72,0,0,1,7.33-11.76,18.39,18.39,0,0,0-.14-33.68,12.72,12.72,0,0,1-7.43-11.7L1.28,85.21A12.72,12.72,0,0,1,8.61,73.45,18.38,18.38,0,0,0,19.54,56.56,18.35,18.35,0,0,0,8.48,39.77,12.74,12.74,0,0,1,1,28.07l0-10.7A13,13,0,0,1,14,4.28L560.82,2a13.52,13.52,0,0,1,11.33,6.56A12.34,12.34,0,0,0,593,8.5a13.52,13.52,0,0,1,11.27-6.66L806.55,1a13,13,0,0,1,13.09,13l0,10.7a12.72,12.72,0,0,1-7.34,11.76A18.38,18.38,0,0,0,801.42,53.33Z"/><path class="cls-1" d="M15.33,345.91a14,14,0,0,1-14-14l0-10.67a13.68,13.68,0,0,1,7.92-12.68,17.39,17.39,0,0,0-.13-31.85,13.69,13.69,0,0,1-8-12.61L.93,242.59a13.69,13.69,0,0,1,7.93-12.68,17.39,17.39,0,0,0-.12-31.84,13.69,13.69,0,0,1-8-12.62L.61,163.89a13.68,13.68,0,0,1,7.92-12.68,17.39,17.39,0,0,0-.13-31.85,13.69,13.69,0,0,1-8-12.61L.28,85.21A13.69,13.69,0,0,1,8.21,72.53a17.4,17.4,0,0,0,10.33-16A17.37,17.37,0,0,0,8.09,40.69a13.67,13.67,0,0,1-8-12.62l0-10.7A14,14,0,0,1,14,3.28L560.82,1h0A14.57,14.57,0,0,1,573,8a11.29,11.29,0,0,0,9.55,5.22h0A11.27,11.27,0,0,0,592.13,8,14.55,14.55,0,0,1,604.24.84L806.55,0h.06a14,14,0,0,1,14,14l0,10.7a13.68,13.68,0,0,1-7.93,12.69,17.39,17.39,0,0,0-10.33,16h0A17.4,17.4,0,0,0,812.89,69.2a13.69,13.69,0,0,1,8,12.62l.09,21.53A13.68,13.68,0,0,1,813.08,116a17.4,17.4,0,0,0,.13,31.85,13.69,13.69,0,0,1,8,12.61l.08,21.56a13.68,13.68,0,0,1-7.93,12.69,17.39,17.39,0,0,0,.14,31.84,13.68,13.68,0,0,1,8,12.62l.09,21.53a13.69,13.69,0,0,1-7.93,12.68,17.39,17.39,0,0,0,.14,31.84,13.72,13.72,0,0,1,8,12.62l0,10.67a14,14,0,0,1-14,14.09l-202.3.84h0a14.57,14.57,0,0,1-12.12-7,11.29,11.29,0,0,0-9.54-5.22h-.05a11.3,11.3,0,0,0-9.55,5.3,14.55,14.55,0,0,1-12.11,7.13L15.39,345.91ZM560.87,3h0L14,5.28A12,12,0,0,0,2,17.36l0,10.7A11.67,11.67,0,0,0,8.88,38.85,19.4,19.4,0,0,1,20.54,56.56,19.38,19.38,0,0,1,9,74.36,11.69,11.69,0,0,0,2.28,85.21l.09,21.53A11.7,11.7,0,0,0,9.2,117.53,19.38,19.38,0,0,1,9.34,153a11.7,11.7,0,0,0-6.73,10.85l.09,21.56a11.69,11.69,0,0,0,6.83,10.79,19.39,19.39,0,0,1,.14,35.51,11.69,11.69,0,0,0-6.74,10.84L3,264.12a11.7,11.7,0,0,0,6.83,10.79,19.38,19.38,0,0,1,.15,35.5,11.69,11.69,0,0,0-6.74,10.85l0,10.67a12,12,0,0,0,12,12h.06l546.84-2.26a12.6,12.6,0,0,0,10.43-6.19,13.26,13.26,0,0,1,11.23-6.24H584a13.31,13.31,0,0,1,11.23,6.14,12.56,12.56,0,0,0,10.43,6.11h0L808,340.63a12,12,0,0,0,12-12.08l0-10.67a11.69,11.69,0,0,0-6.83-10.79,19.39,19.39,0,0,1-.15-35.51,11.66,11.66,0,0,0,6.74-10.84l-.09-21.54a11.67,11.67,0,0,0-6.83-10.78,19.39,19.39,0,0,1-.15-35.51,11.69,11.69,0,0,0,6.74-10.85l-.08-21.56a11.69,11.69,0,0,0-6.83-10.79,19.39,19.39,0,0,1-.15-35.51A11.68,11.68,0,0,0,819,103.36l-.09-21.53A11.68,11.68,0,0,0,812.09,71a19.4,19.4,0,0,1-11.67-17.71h0a19.39,19.39,0,0,1,11.52-17.8,11.7,11.7,0,0,0,6.74-10.85l0-10.7a12.05,12.05,0,0,0-12-12h-.05l-202.31.84A12.54,12.54,0,0,0,593.83,9a13.3,13.3,0,0,1-11.24,6.23h-.05A13.32,13.32,0,0,1,571.3,9.13,12.56,12.56,0,0,0,560.87,3Z"/><path class="cls-2" d="M16.56,322a32.68,32.68,0,0,0-.25-58.77l-.08-19.9a32.71,32.71,0,0,0,18.26-29.47A32.67,32.67,0,0,0,16,184.57l-.08-19.93a32.68,32.68,0,0,0-.25-58.77L15.58,86A32.71,32.71,0,0,0,33.84,56.5a32.67,32.67,0,0,0-18.5-29.31l0-8.62,544.82-2.25A26.49,26.49,0,0,0,580,28.44q1.32.12,2.67.12a26.52,26.52,0,0,0,22.42-12.43l200.28-.83,0,8.62a32.68,32.68,0,0,0,.25,58.78l.08,19.9a32.68,32.68,0,0,0,.24,58.77L806,181.3a32.69,32.69,0,0,0,.24,58.78l.08,19.9a32.68,32.68,0,0,0,.24,58.77l0,8.59-200.28.83a26.45,26.45,0,0,0-19.86-12.12,25.91,25.91,0,0,0-2.66-.12,26.52,26.52,0,0,0-22.43,12.43L16.59,330.61Z"/><path class="cls-1" d="M128,121.85v28.59h19.39v19.77H128v43.38q0,6.15,2.88,8.92c1.92,1.86,4.92,2.79,9,2.79a39.23,39.23,0,0,0,7.68-.77V243q-5,2.12-13.63,2.11-13,0-20.53-7.38t-7.49-20.44v-47H88.63V150.44h4.79q7.11,0,10.75-4t3.65-10.55v-14Z"/><path class="cls-1" d="M210.31,147.57q21.1,0,34.84,14t13.72,35.5q0,21.49-13.72,35.61t-34.84,14.1q-20.92,0-34.64-14.1t-13.73-35.61q0-21.5,13.73-35.5T210.31,147.57Zm-18.52,71.3a25.62,25.62,0,0,0,37,.09q7.59-7.86,7.58-21.88,0-13.82-7.58-21.59a26,26,0,0,0-37,0q-7.59,7.77-7.58,21.59T191.79,218.87Z"/><path class="cls-1" d="M302.63,190v53.93H280.36V150.44h21.69v12.48a28.08,28.08,0,0,1,11.81-11.42,34.45,34.45,0,0,1,15.83-3.74q16.5,0,25.14,10.36t8.64,26.68v59.11H341.21V188.64q0-9.4-4.61-15.07T322,167.91q-9.21,0-14.3,6.24T302.63,190Z"/><path class="cls-1" d="M478.05,150.44,439.66,190l39.16,53.93H451.56l-27.44-38.19L412.6,217.81v26.1H390.53V105H412.6v83.29l35.89-37.81Z"/><path class="cls-1" d="M554.44,211.28l18.81,6a41.67,41.67,0,0,1-15.07,21.2q-11,8.35-27.16,8.35-20,0-33.87-13.63T483.23,196.7q0-21.49,13.53-35.32t32-13.81q21.49,0,33.59,13.14t12.09,35.41q0,6-.57,7.1H505.5a24.13,24.13,0,0,0,7.77,17.47A25,25,0,0,0,531,227.6Q549.06,227.6,554.44,211.28Zm-48.37-24.37h45.87a21.66,21.66,0,0,0-6.24-14.78q-5.85-5.94-16.79-5.95-10,0-16.12,6.24A22.37,22.37,0,0,0,506.07,186.91Z"/><path class="cls-1" d="M623.92,121.85v28.59H643.3v19.77H623.92v43.38c0,4.1,1,7.07,2.88,8.92s4.92,2.79,9,2.79a39.2,39.2,0,0,0,7.67-.77V243q-5,2.12-13.63,2.11-13.05,0-20.53-7.38t-7.49-20.44v-47H584.57V150.44h4.8q7.1,0,10.75-4t3.64-10.55v-14Z"/><path class="cls-1" d="M659.42,218.58l19.39-5.37a16.83,16.83,0,0,0,5.56,11.32q5,4.6,13.44,4.6c4.34,0,7.77-1,10.26-3.07a9.51,9.51,0,0,0,3.75-7.67q0-8.07-10.94-10.37L687.06,205q-12.09-2.69-18.62-10a25,25,0,0,1-6.52-17.27q0-12.28,10-21.21t24.37-8.92a46,46,0,0,1,16.32,2.68,28.12,28.12,0,0,1,11,7,40.82,40.82,0,0,1,6,8.35,24.93,24.93,0,0,1,2.68,8.06L713.55,179a17.47,17.47,0,0,0-4.9-9.69Q704.53,165,696.27,165a14.5,14.5,0,0,0-9.59,3.17,9.5,9.5,0,0,0-3.84,7.58q0,7.88,9.4,9.79l14.2,2.88q13,2.88,20,10.36a25.65,25.65,0,0,1,6.91,18q0,11.72-9.3,20.83t-26,9.11a48.09,48.09,0,0,1-17.18-2.88,31.83,31.83,0,0,1-11.9-7.39,40.94,40.94,0,0,1-6.72-9A23.1,23.1,0,0,1,659.42,218.58Z"/></g></g></svg>